<?xml version="1.0" encoding="UTF-8" standalone="no"?>
<svg
   fill="#000000"
   viewBox="0 0 24 24"
   version="1.1"
   id="svg2"
   sodipodi:docname="AirtransporterWhite.svg"
   inkscape:version="1.4 (86a8ad7, 2024-10-11)"
   xml:space="preserve"
   xmlns:inkscape="http://www.inkscape.org/namespaces/inkscape"
   xmlns:sodipodi="http://sodipodi.sourceforge.net/DTD/sodipodi-0.dtd"
   xmlns="http://www.w3.org/2000/svg"
   xmlns:svg="http://www.w3.org/2000/svg"><defs
     id="defs2" /><sodipodi:namedview
     id="namedview2"
     pagecolor="#ffffff"
     bordercolor="#000000"
     borderopacity="0.25"
     inkscape:showpageshadow="2"
     inkscape:pageopacity="0.0"
     inkscape:pagecheckerboard="0"
     inkscape:deskcolor="#d1d1d1"
     inkscape:zoom="10.827573"
     inkscape:cx="16.300975"
     inkscape:cy="8.3582904"
     inkscape:window-width="1920"
     inkscape:window-height="974"
     inkscape:window-x="-11"
     inkscape:window-y="-11"
     inkscape:window-maximized="1"
     inkscape:current-layer="svg2"
     showgrid="false" /><path
     style="fill:#ffffff;stroke-width:0.70964;fill-opacity:1"
     d="m 22.047522,13.701354 c -1.281683,9.94e-4 -1.262743,-0.0152 -1.305715,1.114545 l -0.03806,1.000698 -0.540055,0.01953 c -1.096082,0.03963 -2.613256,0.06075 -2.788394,0.03882 -0.09924,-0.01243 -0.182419,-0.37981 -0.184841,-0.816401 -0.0025,-0.449257 -0.08535,-0.804478 -0.190908,-0.818399 -0.102578,-0.01353 -0.582551,0.02279 -1.066608,0.08072 -1.913162,0.22894 -4.893349,0.09519 -6.5387039,-0.293447 -0.8642373,-0.20414 -1.6945364,-0.283744 -2.7878249,-0.267293 -0.8563583,0.01289 -1.7800811,-0.02006 -2.0527174,-0.07323 -0.3702086,-0.07219 -0.7821091,0.05308 -1.6270142,0.494829 -0.6222217,0.325319 -1.2030746,0.582025 -1.2907842,0.570457 -0.1747626,-0.02305 -0.1781033,-0.08804 -0.1912467,-3.72096 -0.00499,-1.3789068 0.02628,-2.5342158 0.069487,-2.5673538 0.043207,-0.03314 0.6382102,0.222486 1.3222308,0.568053 0.786498,0.397339 1.3395359,0.593063 1.5044518,0.532436 0.1434279,-0.05273 0.7234666,-0.08566 1.2889747,-0.07319 1.300311,0.02868 3.0965424,-0.09809 3.4808897,-0.245666 0.9702807,-0.37255 4.0658907,-0.567126 6.3293297,-0.397834 l 1.697076,0.126932 0.0057,-0.834093 0.0057,-0.834093 0.928004,0.006 c 0.510401,0.0033 1.313759,0.04965 1.785241,0.102977 l 0.857238,0.09695 -0.0054,0.816116 c -0.003,0.448864 0.02715,0.888574 0.06696,0.977134 0.04593,0.102172 0.399763,0.148085 0.968197,0.125617 0.502635,-0.01986 0.943324,0.03105 1.004057,0.115987 0.09633,0.134719 0.194528,3.3608868 0.11959,3.9290868 -0.02,0.151643 -0.287506,0.224623 -0.824832,0.225029 z m -0.790583,-2.839612 c -0.437096,-0.144336 -0.612664,0.09902 -0.592832,0.821729 0.01554,0.566321 0.07323,0.669973 0.39663,0.712625 0.354104,0.0467 0.381658,0.002 0.428419,-0.695631 0.03882,-0.579249 -0.01297,-0.766325 -0.232217,-0.838723 z m -1.844297,0.48404 c -0.02288,-0.766531 -0.01497,-1.5955788 0.01757,-1.8423268 0.06847,-0.519146 -0.204471,-0.888773 -0.588341,-0.796752 -0.228485,0.05477 -0.276304,0.250769 -0.338135,1.3859388 -0.05856,1.075116 -0.112783,1.317174 -0.290215,1.295534 -0.120014,-0.01461 -0.381661,-0.0051 -0.581448,0.02114 -0.259277,0.03408 -0.35436,-0.01963 -0.332201,-0.18765 0.04631,-0.351167 -0.316297,-0.479772 -1.249784,-0.443252 -0.460777,0.01802 -1.72981,0.03019 -2.820074,0.02704 -1.090264,-0.0031 -2.732465,-0.0013 -3.6493356,0.0039 -0.9168714,0.0053 -1.8745005,5.42e-4 -2.1280651,-0.0106 -0.6773238,-0.02977 -0.7099663,0.284263 -0.062072,0.597155 0.3797704,0.183404 0.483148,0.292854 0.3157412,0.334283 -0.4595174,0.113721 -1.071172,0.500071 -0.9799645,0.618991 0.049677,0.06478 0.8965509,0.106462 1.8819408,0.09265 2.2674792,-0.03179 3.5855352,-0.04024 5.9422172,-0.03807 2.410975,0.0022 2.596526,-0.02302 2.640865,-0.359214 0.02693,-0.204215 0.194245,-0.27678 0.63101,-0.273676 0.326898,0.0023 0.618652,0.03107 0.648344,0.0639 0.02969,0.03283 0.05511,0.63286 0.05649,1.333411 0.0025,1.247924 0.01133,1.274894 0.438201,1.331193 l 0.435698,0.05746 0.02658,-0.908698 c 0.01461,-0.499785 0.0079,-1.535862 -0.01502,-2.302392 z M 3.9417891,11.050536 c -1.1766525,-0.566081 -1.187435,-0.56245 -1.1850871,0.398957 0.00311,1.275313 0.042126,1.305366 1.046215,0.805956 C 4.2901238,12.013124 4.6995618,11.728944 4.7127794,11.623937 4.7259974,11.51893 4.3790512,11.2609 3.9417891,11.050536 Z"
     id="path9"
     sodipodi:nodetypes="cscssssssssssssssssscccsscsscssccssssssssscsssssssssssssssscssssssss" /></svg>
