<?xml version="1.0" encoding="UTF-8" standalone="no"?>
<!-- Created with Inkscape (http://www.inkscape.org/) -->

<svg
   width="210mm"
   height="297mm"
   viewBox="0 0 210 297"
   version="1.1"
   id="svg1"
   xml:space="preserve"
   inkscape:version="1.4 (86a8ad7, 2024-10-11)"
   sodipodi:docname="ArtilleryIcon.svg"
   xmlns:inkscape="http://www.inkscape.org/namespaces/inkscape"
   xmlns:sodipodi="http://sodipodi.sourceforge.net/DTD/sodipodi-0.dtd"
   xmlns="http://www.w3.org/2000/svg"
   xmlns:svg="http://www.w3.org/2000/svg"><sodipodi:namedview
     id="namedview1"
     pagecolor="#ffffff"
     bordercolor="#000000"
     borderopacity="0.25"
     inkscape:showpageshadow="2"
     inkscape:pageopacity="0.0"
     inkscape:pagecheckerboard="0"
     inkscape:deskcolor="#d1d1d1"
     inkscape:document-units="mm"
     inkscape:zoom="0.65477694"
     inkscape:cx="443.66254"
     inkscape:cy="324.538"
     inkscape:window-width="1920"
     inkscape:window-height="974"
     inkscape:window-x="-11"
     inkscape:window-y="-11"
     inkscape:window-maximized="1"
     inkscape:current-layer="layer1" /><defs
     id="defs1" /><g
     inkscape:label="Layer 1"
     inkscape:groupmode="layer"
     id="layer1"><path
       style="fill:#e6b008;stroke-width:1.83296"
       d="m 118.53594,138.95198 c 0,-0.45692 0.84115,-0.82503 1.8692,-0.81805 1.51151,0.011 1.63074,0.1668 0.62307,0.81805 -1.61063,1.04086 -2.49227,1.04086 -2.49227,0 z m -8.76252,-14.75868 c -1.08878,-0.76355 -19.483254,-32.908665 -19.483254,-34.047791 0,-0.740234 9.39967,-6.687519 18.692054,-11.826671 1.82766,-1.010791 4.55769,-2.591209 6.06669,-3.512035 1.50901,-0.920828 2.99717,-1.420723 3.30702,-1.110878 1.60594,1.605943 26.50329,45.848755 26.20118,46.559745 -0.19515,0.45925 -2.11096,1.68256 -4.25735,2.71845 -3.54974,1.71319 -5.06657,1.88101 -16.77928,1.85649 -7.08221,-0.0148 -13.26839,-0.30162 -13.74706,-0.63731 z"
       id="path8" /><path
       style="fill:#535353;stroke-width:2.37313"
       d="m 95.983856,155.43532 c 4.552794,-3.9974 9.252204,-13.09448 9.252204,-17.91034 v -3.55336 h 7.49122 c 6.46229,0 7.65401,0.30424 8.6766,2.21496 l 1.18539,2.21493 3.75404,-2.21493 c 2.27204,-1.34053 5.64054,-2.21496 8.53267,-2.21496 h 4.77865 v 4.34517 c 0,5.34534 3.39137,12.25522 8.29338,16.89755 l 3.69115,3.49563 H 121.94669 92.254226 Z"
       id="path5" /><path
       style="fill:#434343;stroke-width:1.83296"
       d="m 75.336516,147.95246 v -9.83125 h 14.95365 14.953644 v 2.74454 c 0,3.71969 -3.62973,10.7461 -7.146224,13.83362 l -2.88069,2.52928 h 22.933904 22.9339 l -2.85098,-2.69996 c -3.78621,-3.58565 -6.40565,-8.92271 -6.40565,-13.05136 v -3.35612 h 14.53826 14.53826 v 9.13835 c 0,5.02608 0.0935,9.41871 0.2077,9.7614 0.11419,0.34269 -19.1386,0.65449 -42.78404,0.69289 l -42.991734,0.0698 z m -1.66152,-23.56827 c 0,-1.17994 8.08182,-3.70889 11.85258,-3.70889 3.63541,0 11.40865,2.59764 11.40865,3.81252 0,0.1877 -5.23377,0.34127 -11.63061,0.34127 -6.39685,0 -11.63062,-0.20021 -11.63062,-0.4449 z m 66.836524,-0.32194 c 0.26066,-0.42177 1.59117,-1.01223 2.95669,-1.31215 1.36549,-0.29991 2.48274,-0.88944 2.48274,-1.31005 0,-1.49064 9.53033,-0.82596 13.13608,0.91615 1.9135,0.9245 3.47909,1.8591 3.47909,2.0769 0,0.21779 -5.06894,0.39599 -11.26428,0.39599 -6.67205,0 -11.07104,-0.31263 -10.79032,-0.76684 z"
       id="path3"
       sodipodi:nodetypes="ccccsscccsscccsssccssssssssssss" /><path
       style="fill:#323131;stroke-width:1.83296"
       d="m 173.72959,148.5057 c -4.4e-4,-12.33677 0.11511,-17.49943 0.25693,-11.47261 0.14169,6.02684 0.14205,16.12055 8.1e-4,22.43048 -0.14133,6.30992 -0.25728,1.37888 -0.25774,-10.95787 z m -99.211124,8.93064 c 0.007,-0.89564 0.24706,-1.10342 0.62308,-0.54118 0.43147,0.6452 13.20931,0.88866 43.602104,0.83077 23.64546,-0.0451 42.99173,0.19847 42.99173,0.54116 -2e-5,0.34269 -19.6267,0.62308 -43.61482,0.62308 -40.988924,0 -43.614044,-0.0876 -43.602094,-1.45383 z m 86.561324,-9.95378 -0.17523,-9.33072 -19.31513,-0.23908 -19.31512,-0.23907 19.3412,-0.19161 c 15.37239,-0.15232 19.42738,0.033 19.76124,0.90298 0.23102,0.60204 0.29813,4.99468 0.1492,9.76142 l -0.27091,8.66679 z m -75.615524,-9.98173 c 5.79872,-0.14261 15.518584,-0.14297 21.599714,-8.7e-4 6.08111,0.14206 1.3367,0.25882 -10.543134,0.25929 -11.87984,4.8e-4 -16.85531,-0.11584 -11.05658,-0.25842 z m -6.14221,-12.45969 c 3.79127,-0.15428 9.77273,-0.15342 13.29213,0.002 3.51941,0.15534 0.41748,0.28156 -6.8932,0.28051 -7.31068,-0.001 -10.1902,-0.12814 -6.39893,-0.28243 z m 65.629894,0 c 3.79125,-0.15428 9.77272,-0.15342 13.29213,0.002 3.5194,0.15534 0.41747,0.28156 -6.89321,0.28051 -7.31067,-0.001 -10.19019,-0.12814 -6.39892,-0.28243 z M 89.778346,88.314598 c -0.89918,-1.129114 -7.65659,-13.62438 -7.65659,-14.157945 0,-0.325976 15.91274,-9.98045 22.753654,-13.804943 1.77696,-0.993428 3.49479,-1.50305 3.81742,-1.132494 1.08475,1.245894 8.32077,13.60298 8.32077,14.209533 0,0.615223 -14.47162,9.50397 -22.147464,13.60338 -3.25586,1.738853 -4.47885,2.047129 -5.08779,1.282469 z"
       id="path2"
       sodipodi:nodetypes="scsscsssscccccsscccssssccsccscscssssssss" /><path
       style="fill:#020201;stroke:#000000;stroke-width:3.60136;stroke-dasharray:none;stroke-opacity:1"
       d="m 62.518646,169.66933 c -0.30607,-0.30603 -0.55645,-10.44723 -0.55645,-22.536 v -21.97955 l 55.714034,-5.5e-4 55.71401,-5.5e-4 -0.23486,22.53656 -0.23485,22.53654 H 117.9978 c -30.207484,0 -55.173124,-0.2504 -55.479154,-0.55645 z m 98.585194,-21.77087 -0.23361,-10.642 -43.194,-0.21619 -43.194024,-0.21618 -0.011,8.98018 c -0.006,4.93908 -0.23789,9.82527 -0.5147,10.85818 l -0.50329,1.87801 H 117.751 161.33782 Z"
       id="path1"
       sodipodi:nodetypes="sscccccsscccccscccc" /></g></svg>
