<?xml version="1.0" encoding="UTF-8" standalone="no"?>
<svg
   fill="#000000"
   viewBox="0 0 24 24"
   version="1.1"
   id="svg2"
   sodipodi:docname="ArtilleryIconWhite.svg"
   inkscape:version="1.4 (86a8ad7, 2024-10-11)"
   xml:space="preserve"
   xmlns:inkscape="http://www.inkscape.org/namespaces/inkscape"
   xmlns:sodipodi="http://sodipodi.sourceforge.net/DTD/sodipodi-0.dtd"
   xmlns="http://www.w3.org/2000/svg"
   xmlns:svg="http://www.w3.org/2000/svg"><defs
     id="defs2" /><sodipodi:namedview
     id="namedview2"
     pagecolor="#ffffff"
     bordercolor="#000000"
     borderopacity="0.25"
     inkscape:showpageshadow="2"
     inkscape:pageopacity="0.0"
     inkscape:pagecheckerboard="0"
     inkscape:deskcolor="#d1d1d1"
     inkscape:zoom="21.655145"
     inkscape:cx="13.691896"
     inkscape:cy="7.5963472"
     inkscape:window-width="1920"
     inkscape:window-height="974"
     inkscape:window-x="-11"
     inkscape:window-y="-11"
     inkscape:window-maximized="1"
     inkscape:current-layer="svg2"
     showgrid="false" /><path
     style="fill:#ffffff;stroke-width:0.287009;fill-opacity:1;stroke:#ffffff;stroke-opacity:1"
     d="m 12.132277,16.195833 c 0,-0.07155 0.131708,-0.129187 0.292677,-0.128088 0.23668,0.0014 0.255351,0.02614 0.09757,0.128088 -0.252195,0.162979 -0.390242,0.162979 -0.390242,0 z M 10.76022,13.884889 C 10.589737,13.765335 7.7095018,8.7319855 7.7095018,8.5536235 c 0,-0.115917 1.4718125,-1.0471457 2.9268312,-1.8518434 0.286178,-0.1582792 0.713656,-0.4057365 0.949934,-0.5499252 0.236286,-0.1441855 0.469303,-0.2224556 0.517818,-0.1739406 0.251464,0.2514639 4.149936,7.1790827 4.102636,7.2904127 -0.03056,0.07192 -0.330539,0.263458 -0.66663,0.425665 -0.555819,0.26825 -0.793328,0.294526 -2.627331,0.290689 -1.108941,-0.0021 -2.07759,-0.04723 -2.15254,-0.09979 z"
     id="path8" /><path
     style="fill:#ffffff;stroke-width:0.371588;fill-opacity:1;stroke:#ffffff;stroke-opacity:1"
     d="m 8.6010263,18.776821 c 0.71289,-0.625916 1.4487287,-2.050353 1.4487287,-2.804435 v -0.55639 h 1.172987 c 1.011878,0 1.198482,0.04765 1.3586,0.346823 l 0.185613,0.346821 0.587815,-0.346821 c 0.355759,-0.209899 0.883204,-0.346823 1.336057,-0.346823 h 0.748251 v 0.680376 c 0,0.83698 0.531028,1.918946 1.298595,2.645847 l 0.577962,0.547353 H 12.666334 8.0170334 Z"
     id="path5" /><path
     style="fill:#ffffff;stroke-width:0.287009;fill-opacity:1;stroke:#ffffff;stroke-opacity:1"
     d="M 5.3680237,17.605141 V 16.065747 H 7.7095018 10.05097 v 0.429749 c 0,0.582432 -0.5683487,1.682639 -1.1189687,2.166088 l -0.451067,0.396039 h 3.5910357 3.591032 l -0.446409,-0.422764 c -0.592853,-0.561449 -1.00301,-1.397128 -1.00301,-2.043605 v -0.525507 h 2.276428 2.276427 v 1.430902 c 0,0.78699 0.01455,1.474801 0.03253,1.52846 0.01784,0.05369 -2.996758,0.10247 -6.699203,0.108499 l -6.7317268,0.01099 z M 5.1078611,13.914783 c 0,-0.184763 1.2654706,-0.580746 1.855899,-0.580746 0.5692426,0 1.7863942,0.40674 1.7863942,0.596971 0,0.02937 -0.819519,0.0534 -1.8211436,0.0534 -1.001631,0 -1.8211496,-0.03134 -1.8211496,-0.06964 z m 10.4653909,-0.05038 c 0.04083,-0.06606 0.249145,-0.158489 0.462965,-0.205457 0.213813,-0.04694 0.388751,-0.139272 0.388751,-0.205134 0,-0.233406 1.492277,-0.129333 2.056875,0.143458 0.29962,0.144751 0.544759,0.291096 0.544759,0.325199 0,0.03409 -0.7937,0.06198 -1.763782,0.06198 -1.044722,0 -1.733522,-0.04897 -1.689568,-0.120071 z"
     id="path3"
     sodipodi:nodetypes="ccccsscccsscccsssccssssssssssss" /><path
     style="fill:#ffffff;stroke-width:0.287009;fill-opacity:1;stroke:#ffffff;stroke-opacity:1"
     d="m 20.774601,17.69177 c -7.2e-5,-1.931713 0.01805,-2.740095 0.04026,-1.796401 0.02221,0.943695 0.02221,2.524182 1.55e-4,3.512209 -0.02214,0.988012 -0.04026,0.215906 -0.04034,-1.715808 z M 5.2399344,19.090144 c 0.00141,-0.140242 0.038725,-0.172774 0.097573,-0.08472 0.067527,0.101015 2.0683403,0.139143 6.8272986,0.130075 3.702453,-0.0071 6.731725,0.03106 6.731725,0.08474 0,0.05369 -3.073184,0.09756 -6.829288,0.09756 -6.4181213,0 -6.8291688,-0.01374 -6.8273004,-0.227648 z m 13.5539376,-1.558576 -0.02748,-1.461027 -3.024396,-0.03745 -3.024403,-0.03745 3.028485,-0.03001 c 2.407033,-0.02382 3.041978,0.0048 3.094252,0.14139 0.03619,0.09426 0.04666,0.782078 0.02332,1.528465 l -0.04244,1.357062 z M 6.9538525,15.968606 c 0.9079742,-0.02235 2.4299258,-0.02242 3.3821215,-1.34e-4 0.95219,0.02221 0.209301,0.04055 -1.6508627,0.04062 -1.8601708,7.8e-5 -2.6392347,-0.01813 -1.7312588,-0.04047 z M 5.992091,14.017644 c 0.593648,-0.02418 1.5302299,-0.02403 2.0813075,2.89e-4 0.5510758,0.02431 0.065345,0.04406 -1.0793516,0.04391 -1.1447174,-1.7e-4 -1.5956022,-0.02009 -1.0019559,-0.0442 z m 10.276455,0 c 0.59364,-0.02418 1.53023,-0.02403 2.081299,2.89e-4 0.551078,0.02431 0.06535,0.04406 -1.079343,0.04391 -1.144726,-1.7e-4 -1.595603,-0.02009 -1.001956,-0.0442 z M 7.6293569,8.2669338 C 7.4885655,8.0901325 6.4304757,6.1336058 6.4304757,6.0500539 c 0,-0.051009 2.4916456,-1.5627585 3.5628106,-2.1615978 0.2782357,-0.1555639 0.5472177,-0.2353516 0.5977357,-0.1773283 0.169851,0.1950779 1.302883,2.1299759 1.302883,2.2249531 0,0.096328 -2.2659927,1.4881525 -3.467888,2.1300406 -0.5098148,0.272278 -0.7013095,0.320546 -0.7966601,0.2008123 z"
     id="path2"
     sodipodi:nodetypes="scsscsssscccccsscccssssccsccscscssssssss" /><path
     style="fill:#ffffff;stroke:#ffffff;stroke-width:0.563907;stroke-dasharray:none;stroke-opacity:1;fill-opacity:1"
     d="m 3.3609796,21.005611 c -0.047922,-0.04792 -0.087132,-1.635845 -0.087132,-3.528729 v -3.4416 l 8.7238094,-8.4e-5 8.723801,-8.4e-5 -0.03675,3.528819 -0.03675,3.528815 h -8.599943 c -4.7299438,0 -8.63911,-0.03921 -8.6870285,-0.08713 z m 15.4366584,-3.408924 -0.03661,-1.666344 -6.763396,-0.03388 -6.7634017,-0.03388 -0.00141,1.406131 c -7.03e-4,0.773371 -0.037238,1.538458 -0.080586,1.700193 l -0.078808,0.294061 h 6.9362267 6.824911 z"
     id="path1"
     sodipodi:nodetypes="sscccccsscccccscccc" /></svg>
