<?xml version="1.0" encoding="UTF-8" standalone="no"?>
<svg
   fill="#000000"
   viewBox="0 0 24 24"
   version="1.1"
   id="svg2"
   sodipodi:docname="MineIconWhite.svg"
   inkscape:version="1.4 (86a8ad7, 2024-10-11)"
   xml:space="preserve"
   xmlns:inkscape="http://www.inkscape.org/namespaces/inkscape"
   xmlns:sodipodi="http://sodipodi.sourceforge.net/DTD/sodipodi-0.dtd"
   xmlns="http://www.w3.org/2000/svg"
   xmlns:svg="http://www.w3.org/2000/svg"><defs
     id="defs2" /><sodipodi:namedview
     id="namedview2"
     pagecolor="#ffffff"
     bordercolor="#000000"
     borderopacity="0.25"
     inkscape:showpageshadow="2"
     inkscape:pageopacity="0.0"
     inkscape:pagecheckerboard="0"
     inkscape:deskcolor="#d1d1d1"
     inkscape:zoom="7.65625"
     inkscape:cx="-17.306122"
     inkscape:cy="2.2857143"
     inkscape:window-width="1920"
     inkscape:window-height="974"
     inkscape:window-x="-11"
     inkscape:window-y="-11"
     inkscape:window-maximized="1"
     inkscape:current-layer="svg2"
     showgrid="false" /><path
     sodipodi:type="star"
     style="fill:none;fill-opacity:1;stroke:#000000;stroke-width:3.77953;stroke-dasharray:none"
     id="path5"
     inkscape:flatsided="true"
     sodipodi:sides="6"
     sodipodi:cx="-0.06530612"
     sodipodi:cy="14.955102"
     sodipodi:r1="13.809504"
     sodipodi:r2="11.959381"
     sodipodi:arg1="-0.53879744"
     sodipodi:arg2="-0.015198666"
     inkscape:rounded="0"
     inkscape:randomized="0"
     d="M 11.787755,7.8693881 11.997632,21.677297 0.14457181,28.763011 -11.918367,22.040816 -12.128245,8.2329073 -0.27518405,1.1471934 Z"
     transform="matrix(0.59440635,0,0,0.59440635,12.925593,3.1581664)" /><g
     id="g13"
     transform="matrix(0.26271618,0,0,0.26271618,28.204118,13.730403)"><path
       style="fill:#83c2f1"
       d="m -40.669454,16.370498 c 0.333282,-1.445819 1.325769,-4.139336 1.523772,-4.135375 0.381522,0.0076 2.725277,4.120567 2.725277,4.782446 0,0.08443 -0.632296,0.218293 -1.405103,0.297465 -0.772806,0.07917 -1.7977,0.197759 -2.277543,0.263525 l -0.872442,0.119574 z m 4.377823,-9.0850103 c -0.164522,-1.2003173 -0.167011,-4.0783226 -0.0039,-4.5033971 0.100615,-0.2621987 0.353412,-0.1479606 1.30102,0.5879254 1.690104,1.3124876 3.071268,2.7844161 2.831901,3.0180015 -0.109239,0.1066009 -1.053985,0.5635308 -2.099435,1.0153998 l -1.900818,0.8215798 z m -15.00455,-1.7660962 c -0.458663,-3.3344864 -0.935125,-8.4683977 -0.830242,-8.9459251 0.12378,-0.5635675 0.13391,-0.5669717 0.627589,-0.2108939 0.632276,0.4560442 6.543734,7.0477548 6.543734,7.2967445 0,0.1851547 -5.598008,2.7447685 -6.002951,2.7447685 -0.119041,0 -0.2712,-0.3981123 -0.33813,-0.884694 z"
       id="path13" /><path
       style="fill:#4087ba;stroke:#4087ba;stroke-opacity:1"
       d="m -41.522005,25.503067 c -0.07868,-0.94454 -0.139866,-1.801006 -0.135969,-1.903256 0.0067,-0.174675 4.840972,-2.416132 5.211048,-2.416132 0.0943,0 0.338607,0.370679 0.542905,0.823731 0.367103,0.814089 0.3783,0.820189 0.956536,0.521172 0.321797,-0.166408 0.628386,-0.232499 0.681308,-0.146868 0.05292,0.08563 0.163625,1.017297 0.246005,2.070371 0.14861,1.899682 0.145911,1.91552 -0.344613,2.022083 -0.449766,0.09771 -6.3818,0.746247 -6.825747,0.746247 -0.10363,0 -0.252794,-0.772807 -0.331473,-1.717348 z m -6.426845,-3.867402 c -0.04608,-0.07686 -1.260282,-2.774438 -2.698223,-5.994623 l -2.614437,-5.8548825 0.514263,-5.6981804 c 0.282844,-3.13399917 0.539544,-5.7793124 0.570445,-5.8784738 0.0309,-0.099161 0.220869,1.39961427 0.422154,3.3306127 0.445674,4.2755266 0.543306,4.8639675 0.807009,4.8639675 0.410699,0 5.992539,-2.565641 5.992539,-2.7544154 0,-0.106646 -1.124082,-1.4431799 -2.49796,-2.97007512 -1.373878,-1.52689527 -2.497959,-2.83144818 -2.497959,-2.89900658 0,-0.2870496 8.905367,6.5883336 9.10713,7.0311537 0.19083,0.418826 -0.173711,1.4212323 -2.592438,7.1286259 -2.621907,6.186832 -2.812706,6.726733 -2.788389,7.89025 l 0.0261,1.24898 -0.833226,0.347904 c -0.458275,0.191347 -0.87093,0.285021 -0.917012,0.208163 z m 8.353954,-4.128624 c 0.143113,-0.05775 0.377296,-0.05775 0.520409,0 0.143112,0.05775 0.02602,0.104994 -0.260205,0.104994 -0.286224,0 -0.403316,-0.04725 -0.260204,-0.104994 z m 1.77335,-0.214556 c 0.202536,-0.05278 0.483557,-0.04931 0.62449,0.0077 0.140933,0.05702 -0.02478,0.100203 -0.368248,0.09596 -0.343469,-0.0042 -0.458778,-0.0509 -0.256242,-0.103674 z m 1.018628,-1.217721 c -0.348775,-0.765479 -0.282235,-0.928782 0.09489,-0.232886 0.17611,0.324968 0.28125,0.629803 0.233643,0.67741 -0.04761,0.04761 -0.195448,-0.152429 -0.328536,-0.444524 z m 4.921804,-1.077008 c -0.354733,-0.77662 -1.228562,-2.722318 -1.941842,-4.323772 l -1.296873,-2.911736 1.379304,-0.5872961 c 0.758617,-0.3230129 1.468682,-0.6758243 1.577921,-0.7840253 0.125536,-0.1243424 -0.142542,-0.550069 -0.728571,-1.157021 l -0.927189,-0.960292 1.440186,1.1172768 c 2.422059,1.8790001 2.505039,1.9905049 4.056732,5.4512876 0.812104,1.811256 1.476552,3.36634 1.476552,3.45574 0,0.141153 -1.210859,0.734202 -3.704809,1.814524 l -0.686442,0.297351 z m -4.49871,-7.4487724 c 0.0042,-0.3434694 0.05089,-0.4587785 0.103674,-0.2562424 0.05278,0.2025361 0.04931,0.4835566 -0.0077,0.6244899 -0.05702,0.1409333 -0.100204,-0.024778 -0.09596,-0.3682475 z M -36.56619,5.363269 c 0,-0.6296939 0.03902,-0.887296 0.08672,-0.572449 0.0477,0.314847 0.0477,0.8300511 0,1.1448981 -0.0477,0.314847 -0.08672,0.057245 -0.08672,-0.5724491 z m -15.658192,-9.0724501 c 0.01,-0.2424983 0.05931,-0.291824 0.125766,-0.1257653 0.06013,0.1502679 0.05274,0.3298087 -0.01643,0.3989796 -0.06917,0.069171 -0.11837,-0.053775 -0.109332,-0.2732143 z"
       id="path12" /><path
       style="fill:#3883bc"
       d="m -34.086776,26.304675 c 0.147627,-0.160187 0.30121,-0.260093 0.341297,-0.222013 0.123472,0.117292 -0.189457,0.513263 -0.405623,0.513263 -0.112246,0 -0.0833,-0.131063 0.06433,-0.29125 z m -7.906187,-4.934179 -0.226178,-2.081045 0.74572,-1.761636 c 0.410146,-0.968899 0.772951,-1.734405 0.806232,-1.701124 0.03328,0.03328 -0.02281,0.429947 -0.124646,0.881477 -0.101836,0.451531 -0.142157,0.863965 -0.0896,0.91652 0.115407,0.115407 4.453217,-0.318909 4.594305,-0.459997 0.0546,-0.0546 -0.04194,-0.437261 -0.214539,-0.85035 -0.172599,-0.413089 -0.28346,-0.751071 -0.246357,-0.751071 0.0371,0 0.536187,0.679133 1.109075,1.509184 0.952025,1.37938 1.054017,1.643464 1.185831,3.070409 0.07932,0.858673 0.19597,1.748571 0.259224,1.977551 0.06325,0.22898 0.04466,0.349807 -0.04133,0.268506 -0.08598,-0.0813 -0.413061,-0.01506 -0.72684,0.1472 -0.559761,0.289464 -0.577503,0.279505 -0.941958,-0.52871 -0.204298,-0.453052 -0.446696,-0.823731 -0.538662,-0.823731 -0.09197,0 -1.037893,0.386229 -2.102059,0.858287 -1.064166,0.472058 -2.224467,0.982327 -2.578445,1.133931 l -0.643598,0.275645 z m 7.859206,-9.085798 -2.603749,-3.694898 0.09762,-1.1448981 0.09762,-1.1448981 0.112967,0.9367349 c 0.113808,0.9437062 0.28575,1.0661838 1.051227,0.7488092 0.240558,-0.099738 0.565111,0.4412892 1.390958,2.3187131 0.592454,1.346843 1.409046,3.174774 1.814649,4.06207 0.405603,0.887296 0.716082,1.613266 0.689955,1.613266 -0.02613,0 -1.219192,-1.662704 -2.651255,-3.694899 z m 3.834391,-5.3081635 -0.396549,-0.4683674 0.468368,0.3965485 c 0.440149,0.3726577 0.563131,0.5401863 0.396548,0.5401863 -0.0395,0 -0.250266,-0.2107653 -0.468367,-0.4683674 z"
       id="path11" /><path
       style="fill:#306d9e"
       d="m -41.247192,27.286379 c 0.150268,-0.06013 0.329809,-0.05274 0.39898,0.01643 0.06917,0.06917 -0.05378,0.11837 -0.273214,0.109331 -0.242499,-0.01 -0.291824,-0.05931 -0.125766,-0.125765 z m 1.652296,-0.203827 c 0.143113,-0.05775 0.377296,-0.05775 0.520409,0 0.143112,0.05775 0.02602,0.104995 -0.260205,0.104995 -0.286224,0 -0.403316,-0.04725 -0.260204,-0.104995 z m 1.981513,-0.214556 c 0.202537,-0.05278 0.483557,-0.04931 0.62449,0.0077 0.140934,0.05702 -0.02478,0.100203 -0.368247,0.09596 -0.34347,-0.0042 -0.458779,-0.0509 -0.256243,-0.103674 z m 1.97359,-0.201771 c 0.143112,-0.05775 0.377296,-0.05775 0.520408,0 0.143112,0.05775 0.02602,0.104995 -0.260204,0.104995 -0.286224,0 -0.403316,-0.04725 -0.260204,-0.104995 z m -5.951827,-0.486627 c 0,-0.286224 0.04725,-0.403316 0.104995,-0.260204 0.05775,0.143112 0.05775,0.377296 0,0.520408 -0.05775,0.143113 -0.104995,0.02602 -0.104995,-0.260204 z m 7.702042,-0.62449 c 0,-0.286224 0.04725,-0.403316 0.104995,-0.260204 0.05775,0.143112 0.05775,0.377296 0,0.520408 -0.05775,0.143113 -0.104995,0.02602 -0.104995,-0.260204 z m -7.902492,-1.353061 c 0.0042,-0.34347 0.0509,-0.458779 0.103674,-0.256242 0.05278,0.202536 0.04931,0.483556 -0.0077,0.624489 -0.05702,0.140934 -0.100203,-0.02478 -0.09596,-0.368247 z m 7.702042,-0.62449 c 0.0042,-0.343469 0.0509,-0.458778 0.103674,-0.256242 0.05278,0.202536 0.04931,0.483556 -0.0077,0.62449 -0.05702,0.140933 -0.100203,-0.02478 -0.09596,-0.368248 z m -7.910205,-1.24898 c 0.0042,-0.343469 0.0509,-0.458778 0.103674,-0.256242 0.05278,0.202536 0.04931,0.483556 -0.0077,0.62449 -0.05702,0.140933 -0.100203,-0.02478 -0.09596,-0.368248 z m 7.694328,-0.728571 c 0,-0.286225 0.04725,-0.403317 0.104995,-0.260204 0.05775,0.143112 0.05775,0.377296 0,0.520408 -0.05775,0.143112 -0.104995,0.02602 -0.104995,-0.260204 z m -11.857594,-1.353062 c 0.0042,-0.343469 0.0509,-0.458778 0.103674,-0.256242 0.05278,0.202536 0.04931,0.483557 -0.0077,0.62449 -0.05702,0.140933 -0.100203,-0.02478 -0.09596,-0.368248 z m 3.947389,0.104082 c 0,-0.286225 0.04725,-0.403316 0.104995,-0.260204 0.05775,0.143112 0.05775,0.377296 0,0.520408 -0.05775,0.143112 -0.104995,0.02602 -0.104995,-0.260204 z m 7.702042,-0.62449 c 0,-0.286224 0.04725,-0.403316 0.104995,-0.260204 0.05775,0.143112 0.05775,0.377296 0,0.520408 -0.05775,0.143113 -0.104995,0.02602 -0.104995,-0.260204 z m 3.063029,-3.486735 c -0.258928,-0.330159 -0.251565,-0.337521 0.07859,-0.07859 0.200358,0.157131 0.364286,0.321059 0.364286,0.364286 0,0.171325 -0.17094,0.06106 -0.442879,-0.285693 z M -53.233338,8.0693918 c 0,-0.4007143 0.04284,-0.5646429 0.0952,-0.3642857 0.05236,0.2003571 0.05236,0.5282143 0,0.7285715 -0.05236,0.2003571 -0.0952,0.036429 -0.0952,-0.3642858 z m 16.449101,-0.5204082 c 0.0023,-0.4579593 0.04494,-0.6207957 0.09473,-0.3618588 0.04979,0.258937 0.0479,0.6336309 -0.0042,0.8326532 -0.0521,0.1990223 -0.09284,-0.012835 -0.09053,-0.4707944 z M -53.032888,5.675514 c 0.0042,-0.3434695 0.0509,-0.4587785 0.103674,-0.2562424 0.05278,0.2025361 0.04931,0.4835566 -0.0077,0.6244899 -0.05702,0.1409333 -0.100203,-0.024778 -0.09596,-0.3682475 z m 0.215877,-2.3938779 c 0,-0.4007143 0.04284,-0.5646429 0.0952,-0.3642857 0.05236,0.2003571 0.05236,0.5282143 0,0.7285715 -0.05236,0.2003571 -0.0952,0.036429 -0.0952,-0.3642858 z m 0.208163,-2.28979618 c 0,-0.40071434 0.04284,-0.56464293 0.0952,-0.36428576 0.05236,0.20035716 0.05236,0.52821434 0,0.72857154 -0.05236,0.2003571 -0.0952,0.036429 -0.0952,-0.36428578 z m 0.20045,-2.39387782 c 0.0042,-0.3434695 0.0509,-0.4587785 0.103674,-0.2562424 0.05278,0.2025361 0.04931,0.4835566 -0.0077,0.6244899 -0.05702,0.14093327 -0.100203,-0.024778 -0.09596,-0.3682475 z m 1.598173,-1.7173472 c -0.258928,-0.3301585 -0.251565,-0.3375213 0.07859,-0.078593 0.346748,0.2719382 0.457018,0.4428789 0.285693,0.4428789 -0.04323,0 -0.207155,-0.1639286 -0.364286,-0.3642858 z m -1.222427,-0.884694 c -0.187616,-0.1212467 -0.213291,-0.2030604 -0.06433,-0.2049757 0.136355,-0.00175 0.305812,0.090486 0.376571,0.2049757 0.159724,0.25844 0.08766,0.25844 -0.312245,0 z"
       id="path10" /><path
       style="fill:#1b4974;stroke:#1b4974;stroke-width:0.377953;stroke-dasharray:none;stroke-opacity:1"
       d="m -43.174825,29.041843 c -0.05562,-0.257602 -0.293883,-2.289489 -0.529475,-4.515304 -0.235591,-2.225816 -0.458506,-4.077097 -0.495368,-4.113958 -0.03686,-0.03686 -0.406251,0.07472 -0.820867,0.247957 -0.414616,0.173238 -0.791624,0.314978 -0.837796,0.314978 -0.04617,0 -0.147911,-0.482164 -0.226086,-1.071474 -0.137756,-1.038455 -0.05449,-1.279016 2.701881,-7.806087 2.122486,-5.0260328 2.810925,-6.8664569 2.713583,-7.2542991 -0.09282,-0.369822 -1.464997,-1.5201471 -4.758291,-3.98897329 -2.545321,-1.90810721 -5.076556,-3.84061691 -5.624966,-4.29446611 -0.54841,-0.4538492 -1.025427,-0.7898996 -1.060037,-0.7467788 -0.08189,0.1020283 -1.178722,12.7991816 -1.173429,13.5838772 0.0058,0.8525581 5.179485,12.4108541 5.555356,12.4108541 0.163864,0 0.583009,-0.147417 0.931432,-0.327594 0.348423,-0.180177 0.682614,-0.278478 0.742645,-0.218446 0.06003,0.06003 0.152918,0.511888 0.206414,1.004125 l 0.09727,0.894976 -1.503812,0.62449 c -0.827097,0.34347 -1.554176,0.608472 -1.615731,0.588894 -0.06156,-0.01958 -1.539182,-3.239276 -3.283614,-7.154884 l -3.171695,-7.119286 0.782377,-8.8239927 c 0.430308,-4.8531958 0.821289,-8.8629039 0.868848,-8.9104626 0.109722,-0.1097218 13.24708,9.698185 13.367163,9.9794714 0.04901,0.1147972 -0.04319,1.8009199 -0.204885,3.7469393 -0.379874,4.5718356 -0.335538,4.9609896 0.368547,3.2348534 l 0.542387,-1.3297195 2.111695,2.9846667 c 1.161432,1.641566 2.111694,2.935426 2.111694,2.875244 0,-0.06018 -0.363581,-0.896392 -0.807959,-1.858245 -0.650751,-1.408547 -0.782386,-1.894368 -0.676531,-2.4968389 l 0.131429,-0.7480153 2.735082,3.8728302 2.735082,3.87283 -0.815081,0.407965 c -0.559878,0.280231 -0.777497,0.50591 -0.695041,0.720786 0.191512,0.499073 1.220456,10.413201 1.093878,10.53978 -0.07997,0.07997 -10.745932,1.341085 -11.346894,1.341631 -0.02644,2.4e-5 -0.09358,-0.210722 -0.149201,-0.468324 z m 6.229371,-2.144554 c 1.714795,-0.179727 3.153565,-0.362533 3.197267,-0.406235 0.0437,-0.0437 -0.113967,-1.8486 -0.350376,-4.010883 l -0.429834,-3.931425 -2.247025,-3.258939 c -1.235863,-1.792416 -2.301656,-3.260373 -2.368428,-3.262126 -0.06677,-0.0018 -0.804451,1.639443 -1.639286,3.647103 l -1.517882,3.650289 0.34831,3.375222 c 0.511986,4.961289 0.457927,4.758911 1.237003,4.630941 0.358843,-0.05894 2.055456,-0.254219 3.770251,-0.433947 z m 6.142615,-9.096263 c -0.0016,-0.257602 -0.05475,-0.661636 -0.118192,-0.897853 -0.10091,-0.375721 0.149259,-0.545098 1.998463,-1.353061 1.162597,-0.507967 2.154343,-1.019305 2.203879,-1.136307 0.04954,-0.117002 -0.641295,-1.81221 -1.535181,-3.76713 l -1.625248,-3.5544003 -3.218603,-2.4310521 -3.218603,-2.431052 -0.144983,1.3063451 c -0.07974,0.7184898 -0.205503,2.1291289 -0.279472,3.1347536 l -0.134489,1.8284086 -0.840018,-1.1730715 -0.840018,-1.1730716 0.262968,-3.6216639 c 0.145493,-2.00377307 0.352616,-3.6216639 0.463647,-3.6216639 0.110374,0 2.286825,1.546568 4.836558,3.4368178 l 4.63588,3.4368177 2.110697,4.6295095 c 1.160884,2.546231 2.109817,4.72892 2.108741,4.850421 -0.002,0.225139 -5.928838,3.008054 -6.402979,3.006483 -0.143113,-4.75e-4 -0.261484,-0.211628 -0.263047,-0.46923 z"
       id="path8" /><path
       style="fill:#25435e;stroke-width:5.91496;stroke-dasharray:none"
       d="m -45.136223,29.145925 c -0.13555,-1.345255 -0.298044,-2.791574 -0.361098,-3.214042 -0.109319,-0.732447 -0.07428,-0.788715 0.754369,-1.211461 0.477957,-0.243835 0.904901,-0.407448 0.948766,-0.363583 0.04386,0.04386 0.204372,1.172331 0.356683,2.507704 0.152311,1.335372 0.325109,2.476129 0.383995,2.535015 0.130556,0.130556 11.213314,-1.069558 11.375579,-1.231823 0.0634,-0.0634 -0.04893,-1.621579 -0.249619,-3.462627 -0.200687,-1.841048 -0.333526,-3.374769 -0.295197,-3.408268 0.03833,-0.0335 0.436089,-0.246388 0.883913,-0.473086 0.773667,-0.391646 0.815144,-0.462701 0.832653,-1.42644 l 0.01843,-1.014262 3.174491,-1.452477 c 1.745969,-0.798862 3.175371,-1.550404 3.176448,-1.670094 0.0011,-0.119691 -0.947857,-2.300898 -2.108741,-4.847129 l -2.110697,-4.6295095 -4.63588,-3.4368177 c -2.549733,-1.8902498 -4.738862,-3.4368178 -4.86473,-3.4368178 -0.137752,0 -0.228851,0.44193678 -0.228851,1.11020422 0,0.61061232 -0.05994,1.17014548 -0.133203,1.24340708 -0.07326,0.073262 -0.491655,-0.1506968 -0.929764,-0.4976854 l -0.796561,-0.63088833 -0.106014,0.48033849 c -0.05831,0.26418618 -0.131699,0.74464984 -0.163093,1.06769704 -0.05511,0.5670587 -0.287218,0.4146966 -6.715954,-4.408474 -3.662381,-2.7477079 -6.698072,-4.9566341 -6.745982,-4.9087248 -0.04791,0.047909 -0.440639,4.0457024 -0.872734,8.8839847 l -0.785627,8.796877 3.135138,7.077552 c 1.724325,3.892654 3.193243,7.139228 3.264261,7.21461 0.07102,0.07538 0.763569,-0.148846 1.539001,-0.498286 0.775433,-0.349439 1.469877,-0.575345 1.543209,-0.502013 0.07333,0.07333 0.141439,0.522993 0.151347,0.999246 l 0.01802,0.865914 -2.060336,0.915031 c -1.133185,0.503267 -2.125124,0.839876 -2.20431,0.74802 -0.07919,-0.09186 -1.764953,-3.820276 -3.74615,-8.285379 l -3.602177,-8.118368 0.878575,-9.99183831 c 0.483217,-5.49551089 0.941646,-10.39501469 1.018731,-10.88778669 l 0.140156,-0.895948 2.344022,1.7286016 c 1.289212,0.9507308 4.678605,3.4849792 7.531984,5.6316631 2.853378,2.146684 5.231828,3.90306176 5.285443,3.90306176 0.05362,0 0.16504,-1.08122446 0.24761,-2.40272116 0.08463,-1.3544581 0.236227,-2.3740213 0.347476,-2.3369383 0.108542,0.036181 2.995888,2.1243949 6.416325,4.64047647 l 6.218977,4.57469373 2.70875,5.9308448 c 1.489812,3.261965 2.642364,5.990331 2.561226,6.063037 -0.08114,0.0727 -2.091248,1.00785 -4.466912,2.078099 -3.589122,1.61692 -4.317428,2.017199 -4.307797,2.367577 0.0064,0.231918 0.226475,2.341975 0.489112,4.689016 0.262637,2.347041 0.443934,4.307212 0.402882,4.355936 -0.07451,0.08844 -14.148389,1.662144 -14.973982,1.674355 -0.404085,0.006 -0.453585,-0.171042 -0.682156,-2.439474 z"
       id="path7" /><path
       style="fill:#153d64"
       d="m -45.673241,23.8258 c -0.07246,-0.708983 -0.181024,-1.62897 -0.241244,-2.044417 -0.09891,-0.682374 -0.05283,-0.775854 0.476987,-0.967484 0.322564,-0.11667 0.742781,-0.27564 0.933816,-0.353267 0.293176,-0.119132 0.367866,0.04796 0.478986,1.071566 0.07241,0.666988 0.178401,1.543035 0.235544,1.94677 0.09874,0.697658 0.05787,0.756427 -0.82422,1.184978 l -0.928117,0.450914 z m 13.330609,-3.318652 c -0.0574,-0.372091 -0.162851,-1.133455 -0.234342,-1.691919 -0.07149,-0.558464 -0.173174,-1.127943 -0.225963,-1.265508 -0.05394,-0.140565 0.27944,-0.41941 0.761127,-0.636621 0.970718,-0.437732 1.232747,-0.271911 1.238626,0.783844 0.0018,0.314847 0.07344,0.57238 0.15931,0.572296 0.08587,-8.4e-5 0.144039,0.483434 0.129271,1.074486 -0.0249,0.996479 -0.07789,1.101834 -0.728571,1.44857 -0.942976,0.502492 -0.979419,0.493041 -1.099458,-0.285148 z m -5.200304,-9.585235 -2.059266,-2.9262702 -0.535918,1.3064286 c -0.294754,0.7185356 -0.573839,1.1926626 -0.620188,1.0536166 -0.04635,-0.139047 0.01992,-1.5299896 0.147258,-3.0909834 0.12734,-1.5609937 0.284977,-3.634395 0.350304,-4.6075584 0.177161,-2.63912898 0.173922,-2.63403787 1.172604,-1.84306695 l 0.839747,0.66509205 -0.146269,2.3409696 -0.146269,2.3409697 0.87746,1.2442381 c 0.753617,1.0686283 0.863595,1.3575383 0.779221,2.0469979 -0.0766,0.6259514 0.07867,1.1882584 0.704975,2.5530364 0.441769,0.962652 0.779004,1.771095 0.749411,1.796539 -0.02959,0.02544 -0.980474,-1.27056 -2.11307,-2.880009 z"
       id="path6" /></g></svg>
