<?xml version="1.0" encoding="UTF-8" standalone="no"?>
<svg
   fill="#000000"
   viewBox="0 0 24 24"
   version="1.1"
   id="svg2"
   sodipodi:docname="MiniHQWhite.svg"
   inkscape:version="1.4 (86a8ad7, 2024-10-11)"
   xml:space="preserve"
   xmlns:inkscape="http://www.inkscape.org/namespaces/inkscape"
   xmlns:sodipodi="http://sodipodi.sourceforge.net/DTD/sodipodi-0.dtd"
   xmlns="http://www.w3.org/2000/svg"
   xmlns:svg="http://www.w3.org/2000/svg"><defs
     id="defs2" /><sodipodi:namedview
     id="namedview2"
     pagecolor="#ffffff"
     bordercolor="#000000"
     borderopacity="0.25"
     inkscape:showpageshadow="2"
     inkscape:pageopacity="0.0"
     inkscape:pagecheckerboard="0"
     inkscape:deskcolor="#d1d1d1"
     inkscape:zoom="43.31029"
     inkscape:cx="6.9152158"
     inkscape:cy="13.218568"
     inkscape:window-width="1920"
     inkscape:window-height="974"
     inkscape:window-x="-11"
     inkscape:window-y="-11"
     inkscape:window-maximized="1"
     inkscape:current-layer="svg2"
     showgrid="false" /><path
     style="fill:#fb0000;stroke:#fb0000;stroke-width:0.245669;stroke-dasharray:none;stroke-opacity:1;fill-opacity:1"
     d="m 11.487603,13.383933 c -1.128063,-0.687829 -1.30489,-1.950487 -0.399893,-2.855485 1.234712,-1.2347117 3.20413,-0.392336 3.20413,1.370497 0,0.282643 -0.151528,0.890143 -0.339893,1.04867 -1.690025,1.422318 -0.492941,0.170383 -0.182491,-0.07583 0.165635,-0.131361 0.238161,-0.792325 0.237094,-1.174066 -0.0053,-1.8958727 -2.75078,-2.0562477 -3.21966,-0.188074 -0.154608,0.616006 0.328983,1.566872 0.938005,1.844361 0.544434,0.24806 1.258019,0.258741 1.404933,0.02103 0.06077,-0.09832 0.426705,-0.290499 0.543808,-0.287372 0.117102,0.0031 -0.163648,0.238084 -0.354513,0.382443 -0.475675,0.359783 -1.152351,0.327945 -1.83152,-0.08617 z"
     id="path22"
     sodipodi:nodetypes="ssssssssscsss" /><path
     style="fill:#ffffff;stroke-width:0.896517;fill-opacity:1"
     d="m 11.419587,19.005034 c -1.6832066,-0.29425 -2.9240876,-0.927668 -4.1267876,-2.106556 -1.390055,-1.362532 -1.963527,-2.804253 -1.963527,-4.936355 0,-1.229001 0.327275,-2.8120177 0.644349,-3.1166887 0.04587,-0.04407 0.162546,-0.260441 0.259284,-0.480815 0.252109,-0.574317 1.621288,-2.05462 2.292,-2.478023 0.314028,-0.198237 1.057977,-0.524937 1.6532196,-0.726 0.916456,-0.309563 1.309826,-0.353666 2.567649,-0.287874 0.816962,0.04274 1.628096,0.156206 1.802518,0.252163 0.174423,0.09596 0.65354,0.332937 1.064704,0.526623 1.008087,0.474876 2.415305,1.939035 2.992696,3.11379 1.316434,2.6784117 0.802973,6.0827737 -1.222343,8.1044117 -0.852996,0.851449 -2.049099,1.597456 -2.99874,1.87031 -0.757537,0.217659 -2.397447,0.364234 -2.965022,0.265014 z m 2.150872,-2.766412 c 0.04744,-0.07676 0.293456,-0.18101 0.546697,-0.231658 0.580229,-0.116045 1.778489,-1.270765 2.192654,-2.112979 0.485599,-0.987475 0.445586,-2.956773 -0.08103,-3.9879597 -0.405591,-0.794203 -1.266236,-1.61002 -2.196825,-2.082398 -0.651668,-0.330794 -2.575538,-0.347022 -3.338677,-0.02816 -1.6116646,0.673396 -2.6210036,2.082696 -2.7543456,3.8457787 -0.07491,0.990495 -0.033,1.25789 0.316249,2.017815 0.523008,1.137995 1.494713,2.13495 2.2707046,2.329712 0.228752,0.05741 0.455548,0.16852 0.503993,0.246905 0.113781,0.1841 2.426959,0.186782 2.540577,0.003 z"
     id="path16" /></svg>
